HIERARCHY
ROOT joint_0
{
	OFFSET 0.000000 0.000000 0.000000
	CHANNELS 6 Xposition Yposition Zposition Zrotation Yrotation Xrotation 
	JOINT joint_1
	{
		OFFSET 1.363060 -1.794630 0.839290
		CHANNELS 3 Zrotation Yrotation Xrotation
		JOINT joint_2
		{
			OFFSET 2.448110 -6.726130 0.000000
			CHANNELS 3 Zrotation Yrotation Xrotation
			JOINT joint_3
			{
				OFFSET 2.562200 -7.039590 0.000000
				CHANNELS 3 Zrotation Yrotation Xrotation
				JOINT joint_4
				{
					OFFSET 0.157640 -0.433110 2.322550
					CHANNELS 3 Zrotation Yrotation Xrotation
					End Site
					{
						OFFSET 0.000000 0.000000 0.000000
					}
				}
			}
		}
	}
	JOINT joint_5
	{
		OFFSET -1.305520 -1.794630 0.839290
		CHANNELS 3 Zrotation Yrotation Xrotation
		JOINT joint_6
		{
			OFFSET -2.542530 -6.985550 0.000000
			CHANNELS 3 Zrotation Yrotation Xrotation
			JOINT joint_7
			{
				OFFSET -2.568260 -7.056230 0.000000
				CHANNELS 3 Zrotation Yrotation Xrotation
				JOINT joint_8
				{
					OFFSET -0.164730 -0.452590 2.363150
					CHANNELS 3 Zrotation Yrotation Xrotation
					End Site
					{
						OFFSET 0.000000 0.000000 0.000000
					}
				}
			}
		}
	}
	JOINT joint_9
	{
		OFFSET 0.028270 2.035590 -0.193380
		CHANNELS 3 Zrotation Yrotation Xrotation
		JOINT joint_10
		{
			OFFSET 0.056720 2.048850 -0.042750
			CHANNELS 3 Zrotation Yrotation Xrotation
			JOINT joint_11
			{
				OFFSET -0.054170 1.746240 0.172020
				CHANNELS 3 Zrotation Yrotation Xrotation
				JOINT joint_12
				{
					OFFSET 0.104070 1.761360 -0.123970
					CHANNELS 3 Zrotation Yrotation Xrotation
					End Site
					{
						OFFSET 0.000000 0.000000 0.000000
					}
				}
			}
			JOINT joint_13
			{
				OFFSET 3.362410 1.200890 -0.311210
				CHANNELS 3 Zrotation Yrotation Xrotation
				JOINT joint_14
				{
					OFFSET 4.983000 -0.000000 -0.000000
					CHANNELS 3 Zrotation Yrotation Xrotation
					JOINT joint_15
					{
						OFFSET 3.483560 -0.000000 -0.000000
						CHANNELS 3 Zrotation Yrotation Xrotation
						JOINT joint_16
						{
							OFFSET 0.000000 0.000000 0.000000
							CHANNELS 3 Zrotation Yrotation Xrotation
							End Site
							{
								OFFSET 0.000000 0.000000 0.000000
							}
						}
					}
				}
			}
			JOINT joint_17
			{
				OFFSET -3.136600 1.374050 -0.404650
				CHANNELS 3 Zrotation Yrotation Xrotation
				JOINT joint_18
				{
					OFFSET -5.241900 -0.000000 -0.000000
					CHANNELS 3 Zrotation Yrotation Xrotation
					JOINT joint_19
					{
						OFFSET -3.444170 -0.000000 -0.000000
						CHANNELS 3 Zrotation Yrotation Xrotation
						JOINT joint_20
						{
							OFFSET 0.000000 0.000000 0.000000
							CHANNELS 3 Zrotation Yrotation Xrotation
							End Site
							{
								OFFSET 0.000000 0.000000 0.000000
							}
						}
					}
				}
			}
		}
	}
}
MOTION
Frames: 17
Frame Time: 0.031667
0.383414 16.863363 -1.810240 -1.405944 0.763194 0.967095 -29.729539 -31.671150 -38.394327 -18.747609 -6.615891 -20.288623 40.720276 -2.035955 0.415957 1.856037 -0.616415 3.538445 5.221297 21.581154 -1.151396 9.370962 -11.731442 -13.401247 2.036018 17.001227 17.061358 0.793271 2.082133 -2.148661 -3.618544 -10.148731 -21.696711 3.312857 5.859154 14.694880 -6.724933 -5.006006 31.120937 8.224359 -15.024552 1.157665 90.351429 13.666447 -11.983944 6.474259 -48.965940 -25.919376 -32.048436 -0.302297 -18.158673 -8.261836 -0.304990 0.083440 -52.145646 7.546450 -12.955931 -27.213893 47.666032 -12.787545 2.273471 10.134154 -19.061719 8.614387 0.088203 0.001275 
0.383318 16.859610 -1.817252 -1.379972 0.747692 0.969901 -53.575051 -34.260523 -44.163361 -5.951137 -13.711553 -17.822129 -20.700586 -11.019901 27.460104 3.195174 -3.069788 -4.742884 -17.093382 19.520898 31.515917 -24.622511 -22.354449 -39.585311 6.512193 30.294488 -7.270765 0.924295 5.535202 -13.706883 34.789439 -1.434458 -24.257767 -19.316958 -2.156998 33.100213 5.029119 33.465547 37.714423 29.901790 -15.371329 19.604269 -94.004512 23.395920 -57.810544 -16.204204 -81.655547 1.576484 -34.066682 -5.460389 -46.870428 -8.948610 -0.255048 0.175383 -98.026875 12.314204 -24.116901 162.225536 88.144139 140.342026 -4.425789 -16.873614 -68.582940 9.391140 0.200682 -0.089525 
0.359751 16.856756 -1.922252 -1.278687 2.231196 1.264987 -13.513543 -44.556626 -51.823702 -21.939654 -6.164221 12.947233 -65.688088 -6.179676 18.715818 4.677209 -6.632170 -16.250897 -17.824842 40.924315 -10.406186 -26.802477 -52.448657 12.333954 70.366228 29.284323 -46.353851 0.354647 6.589948 -16.607093 10.658473 -12.483541 15.160826 -31.089676 -26.479491 15.954347 5.761597 16.524620 9.683535 18.238593 -19.225077 27.450293 33.999572 4.221229 -88.175075 25.146149 -88.731582 -68.298149 -0.890741 -3.275150 -101.964773 -9.590170 -0.223548 0.240578 155.592574 21.299586 22.032640 121.087945 77.564463 149.709965 -20.001830 -11.598810 -112.601283 10.060553 0.283929 -0.264125 
0.356616 16.846096 -1.948889 -0.875224 1.924792 0.723241 -84.784846 21.586427 -29.075053 -6.522821 -12.638673 5.525395 -28.173738 -21.434713 -32.193735 3.136094 -1.877584 0.549454 -5.426640 23.243943 31.675685 6.409944 -5.038990 11.281742 6.054157 31.473898 69.563469 0.637584 -1.341514 9.500996 31.560883 -28.750664 17.576428 13.113965 -7.196326 -33.310751 -1.843865 -42.000852 76.916031 -4.799925 -22.238037 19.514571 140.156957 -29.458599 55.409053 65.652243 -80.182978 -50.881921 -17.745847 5.933324 -122.457386 -9.938734 -0.380666 0.327321 100.558621 46.282642 -7.534742 -36.769504 76.572103 -35.048320 10.243089 5.267169 -21.918635 10.356401 0.392786 -0.204224 
0.352688 16.855104 -1.909324 -1.206381 1.764283 0.913657 -27.697956 19.106664 -4.746993 38.320923 -4.812365 19.048226 5.403128 -2.160502 -13.167485 5.298145 1.878273 12.447181 80.195245 44.195736 5.601064 -29.623692 -29.897568 30.526209 -56.508822 16.712918 79.524507 -2.805330 -9.205554 34.154364 -3.497225 -13.171894 -40.811791 3.849886 19.385503 1.977023 19.446541 -40.188324 84.986644 14.245223 -23.155712 32.188878 -176.342866 -48.836245 -129.655814 16.487575 -74.341514 -67.719857 -7.814080 -11.059911 -167.070051 -9.933650 -0.488301 0.481881 33.357735 68.286346 -70.853343 -152.087033 81.096300 -135.900624 -18.886738 5.195715 -20.992146 10.395755 0.560111 -0.063598 
0.353326 16.855556 -1.907733 -1.240121 1.724975 0.923689 -15.376084 10.267840 -22.672500 48.466469 26.849141 95.926189 -141.493338 -39.010062 -38.057985 9.758624 -0.527222 4.067331 75.861005 30.755423 -5.034068 -0.393023 -34.467098 39.473880 99.651388 -25.858587 -86.796009 -6.944381 -7.659567 29.802380 15.926222 14.356168 24.547377 -0.943188 -22.923382 -4.517395 14.396857 15.815943 69.539884 31.447547 -19.977847 48.483405 -173.037956 -82.062947 10.644683 -139.945063 -48.759349 115.902397 13.827516 -13.654137 8.568345 -10.213818 -0.496883 0.566139 -99.501697 46.359974 -178.556526 139.841049 33.102152 -174.613685 -2.015801 -27.163818 -119.608347 10.769158 0.622185 -0.018084 
0.353497 16.856457 -1.906577 -1.280150 1.729442 0.936999 -51.236784 -12.108196 -33.027912 -26.199774 42.372479 -3.195622 -110.308484 -14.918057 -4.535102 8.835830 -2.043064 0.335959 26.732952 75.468536 -51.679848 -71.031310 -36.288553 43.879044 20.387587 -5.073096 -128.304325 -4.550282 -3.045124 14.202380 -18.771378 26.057397 67.233076 -13.674861 2.358293 -9.108258 15.272043 42.975321 125.287922 24.039365 -21.359450 42.314299 -178.686413 -10.245962 156.972886 63.594040 -75.578106 -78.150259 -44.143591 14.962581 83.597137 -9.987751 -0.638137 0.689998 -23.648534 27.208108 -38.836661 103.683940 54.911301 129.774303 0.265617 7.086812 -139.749987 10.652446 0.745421 0.102751 
0.354524 16.854355 -1.908769 -1.262170 1.675628 0.897137 10.636076 -28.737953 36.936977 -7.545193 -16.692733 -50.626609 -67.887955 -2.327462 -125.542169 5.150420 -4.098670 -1.626052 91.797722 13.095101 45.906784 -43.983932 -14.629927 21.971510 -69.483801 23.356143 7.153208 -1.038127 -0.847737 9.395441 -2.234109 0.448559 58.072980 15.293862 -18.739304 41.839376 0.225603 5.871725 114.808814 21.758392 -22.124460 33.067541 157.921941 -13.736187 -142.697391 -16.932147 -60.050367 37.765987 -69.166867 3.832347 131.836680 -9.514750 -0.717128 0.925925 -81.875353 67.159966 90.195920 -32.210557 56.089561 -63.937121 29.183759 -1.706470 31.874584 10.232363 0.959401 0.277679 
0.355215 16.853754 -1.910480 -1.258266 1.650171 0.888190 -45.186069 7.357892 -38.222852 7.846571 -44.401233 -75.939163 85.608594 31.655400 -76.675178 5.300764 -7.993433 -15.388206 148.550932 22.478006 0.102748 22.603533 -43.988887 -7.665242 -89.243662 -0.124765 -96.464449 -0.074667 2.935214 -2.878284 -21.602702 58.756969 23.509503 -24.265702 -24.183770 -25.796967 31.626655 -22.657278 94.665165 25.942698 -22.834004 39.416820 -133.266184 -47.733289 -148.747040 160.850542 -76.712575 -170.394281 -23.515182 -9.885384 55.920651 -9.261754 -0.678182 0.985197 -101.336737 8.384231 -140.029410 -174.163505 89.916034 -119.902900 -15.044462 11.468822 -45.979293 9.881622 0.972570 0.259087 
0.354847 16.854204 -1.912898 -1.277922 1.673580 0.855423 -155.060348 3.313598 -74.572442 -34.874055 38.572052 -44.635126 -140.303086 -4.562139 -59.174689 6.128516 -6.356564 -13.281334 23.444182 36.813791 26.138436 -28.165902 -29.713017 23.505271 24.313214 -31.419775 135.158246 0.054229 5.682527 -11.617293 45.682453 -11.554823 16.711767 -23.938920 -4.339077 -80.448509 50.554540 37.435621 70.002670 11.054240 -21.787955 31.945491 -101.898404 -23.863035 103.595139 -17.536077 -49.989041 -11.831377 -21.385940 -0.217923 -14.476444 -9.037918 -0.681210 0.812367 -35.231892 29.237417 -151.329371 -127.933775 84.902942 -147.791768 56.697411 1.884008 -143.353294 9.534880 0.769137 0.247944 
0.355467 16.859909 -1.895105 -1.494062 1.709578 1.028775 -133.302917 -51.338919 -56.417779 -24.036517 -19.092590 -14.453744 -66.402498 -15.315482 -19.969356 8.319541 -2.735533 -3.574230 15.234197 58.538690 26.624221 -35.038136 -26.454554 44.235829 13.830473 17.970168 -171.989177 -2.344433 4.769742 -7.300839 15.618527 -14.664894 -11.359874 9.946629 -8.181225 -5.370205 58.560375 17.271540 101.199730 -3.411227 -17.628216 21.674292 20.494719 8.364112 -9.586237 31.901136 -71.330855 -30.628464 -26.007656 17.154643 67.484352 -8.279332 -0.668592 0.514957 96.591456 18.190440 -16.747827 -163.804520 64.495272 -142.342360 46.211960 -45.376341 21.944162 8.795583 0.469745 0.352945 
0.355698 16.858559 -1.896486 -1.490068 1.658553 0.979278 -69.528409 -61.871788 -10.179023 14.624161 2.294988 0.075124 -99.769741 -60.302866 18.897011 12.519580 -5.997398 -14.224257 71.730544 78.393162 -38.938570 -28.840918 -21.928010 52.360647 1.996030 -6.725436 20.116514 -7.265837 3.682330 -2.468611 8.220418 -14.128763 9.798781 -64.544004 36.657892 5.561283 38.027177 9.919086 94.988499 9.045430 -12.064444 35.134947 -170.896801 -8.972463 -114.837637 31.842605 -64.743404 -18.721200 -49.328299 17.986251 -49.129168 -8.075087 -0.521498 0.202518 63.763603 38.533667 -101.399786 156.352917 21.263043 -162.347755 9.866830 -26.403290 -29.229156 8.638124 0.155316 0.267338 
0.356209 16.859009 -1.897598 -1.467705 1.612175 0.967268 -16.200276 -39.639600 -0.822994 -29.287697 -3.444944 13.362769 -40.117772 -18.401013 39.620172 12.978666 -12.251683 -34.452044 24.075843 83.284916 -32.809568 5.033264 -2.381996 -29.553313 30.997147 40.399869 -1.188162 -9.095828 4.268257 -3.858209 7.185692 -14.098775 9.102211 -10.339861 -20.433889 -7.698313 34.588368 -18.350389 63.313750 15.907167 -10.422721 41.134862 177.709269 1.451051 -80.486382 -172.244574 -89.273955 173.165761 19.870472 19.543388 -18.991112 -7.891321 -0.330467 -0.001275 178.922410 27.474885 18.733597 129.466613 40.443854 -172.471200 -17.237266 -32.933301 -58.238516 8.292871 -0.034181 -0.004927 
0.356011 16.859159 -1.899114 -1.498228 1.643050 0.943425 -55.108791 -19.364942 8.497238 -0.783595 -19.401714 -12.413366 -58.309844 -9.466243 52.152869 9.686952 -12.176356 -34.488634 -20.359266 7.866548 11.928884 -0.864367 -19.390791 -10.442873 31.363590 12.672187 1.104636 -6.240409 4.996044 -7.196495 23.305850 -6.242741 -13.762764 -0.662097 -3.698571 -14.897867 68.079856 6.621224 94.280318 6.874880 -9.889980 31.209866 138.137967 15.971899 -96.760995 -5.300749 -82.789993 -30.148288 -24.038810 17.290438 -13.565584 -7.404168 -0.230354 0.014866 -169.436708 13.587913 -12.790660 151.914938 53.360793 165.742141 14.900633 -28.691726 -43.743035 7.657238 -0.008184 -0.057126 
0.357096 16.857958 -1.897973 -1.507732 1.614423 0.943045 -35.430903 -6.117032 15.436793 -13.688265 -16.966463 -28.500469 -66.806388 -13.505847 -14.242468 5.231857 -5.681003 -13.681986 -27.740743 18.551839 16.096613 30.905172 8.698076 -29.460508 34.183611 6.294174 49.367528 -4.832554 0.645655 6.004400 -14.531444 -0.901043 29.655705 41.653714 9.118906 16.335892 -2.285069 -4.650184 54.447113 -0.660130 -7.647616 15.338819 95.776888 -42.771102 -54.796173 -8.591587 -45.645198 21.682084 11.785747 3.434764 -0.222867 -6.138434 -0.218962 0.066025 -28.705936 39.079655 26.762973 -14.931120 65.316641 -1.390199 17.333401 -22.147483 16.757651 6.254879 0.036948 0.091352 
0.357464 16.858408 -1.900766 -1.489286 1.570883 0.920987 -49.731727 -3.572224 40.201650 -23.603151 -4.293694 -47.353459 -18.205938 -8.518162 -32.204646 2.126609 -2.374463 -3.513397 46.511857 7.090424 -8.804670 12.843641 2.460916 -27.589578 -27.785479 -12.814646 -11.868281 -3.825403 -1.509841 11.272018 23.183011 27.324274 -15.885020 9.014006 -5.135000 7.231303 -16.135513 25.561771 42.011708 1.240195 -5.624784 8.894490 16.523238 -31.529024 55.940673 -33.138411 -20.466218 -6.766395 17.242541 3.249057 43.005699 -4.687137 -0.227820 0.085598 -22.931884 20.161320 -69.174954 51.731672 39.189259 56.857766 -3.631539 -16.691661 -9.056319 4.657130 0.038348 0.135946 
0.357580 16.857958 -1.901502 -1.507811 1.578599 0.911483 -6.103308 4.065592 70.665847 -35.139489 -13.795824 -55.779836 97.178326 -11.286687 -22.787601 1.512633 1.744665 7.241145 16.854743 -0.515162 -1.869968 29.439946 -15.352744 -17.856964 -16.554691 4.307661 -57.679800 -4.239544 -5.940821 21.046965 22.537947 1.402922 12.059046 -2.046833 10.754440 -11.860267 12.134744 12.462830 62.144654 4.847104 -7.795798 8.896522 40.792222 8.259531 -9.673288 -14.944976 -39.962235 -14.000830 14.628996 7.417422 39.836494 -3.657288 -0.201449 0.071432 -7.002621 16.032498 13.250828 34.579424 27.660256 10.713903 -16.535495 -12.312477 -8.761138 3.508436 0.027453 0.188775 
